<mxfile host="app.diagrams.net" modified="2024-07-03T22:43:08.786Z" agent="Mozilla/5.0 (Macintosh; Intel Mac OS X 10_15_7) AppleWebKit/537.36 (KHTML, like Gecko) Chrome/126.0.0.0 Safari/537.36" version="24.6.4" etag="eVKgAZK5Q6C2NIWOPv_a" type="github">
  <diagram name="Page-1" id="ukBOr2YQnUsXwd2JZdS2">
    <mxGraphModel>
      <root>
        <mxCell id="0" />
        <mxCell id="1" parent="0" />
      </root>
    </mxGraphModel>
  </diagram>
</mxfile>
